HIERARCHY
ROOT root
{
	OFFSET 0.000000 0.000000 0.000000
	CHANNELS 6 Xposition Yposition Zposition Zrotation Yrotation Xrotation
	JOINT lhip
	{
		OFFSET 0.058581 -0.082280 -0.017664
		CHANNELS 3 Zrotation Yrotation Xrotation
		JOINT lknee
		{
			OFFSET 0.043451 -0.386469 0.008037
			CHANNELS 3 Zrotation Yrotation Xrotation
			JOINT lankle
			{
				OFFSET -0.014790 -0.426874 -0.037428
				CHANNELS 3 Zrotation Yrotation Xrotation
				JOINT ltoe
				{
					OFFSET 0.041054 -0.060286 0.122042
					CHANNELS 3 Zrotation Yrotation Xrotation
					End Site
					{
						OFFSET 0.000000 0.000000 0.000000
					}
				}
			}
		}
	}
	JOINT rhip
	{
		OFFSET -0.060310 -0.090513 -0.013543
		CHANNELS 3 Zrotation Yrotation Xrotation
		JOINT rknee
		{
			OFFSET -0.043257 -0.383688 -0.004843
			CHANNELS 3 Zrotation Yrotation Xrotation
			JOINT rankle
			{
				OFFSET 0.019056 -0.420046 -0.034562
				CHANNELS 3 Zrotation Yrotation Xrotation
				JOINT rtoe
				{
					OFFSET -0.034840 -0.062106 0.130323
					CHANNELS 3 Zrotation Yrotation Xrotation
					End Site
					{
						OFFSET 0.000000 0.000000 0.000000
					}
				}
			}
		}
	}
	JOINT lowerback
	{
		OFFSET 0.004439 0.124404 -0.038385
		CHANNELS 3 Zrotation Yrotation Xrotation
		JOINT upperback
		{
			OFFSET 0.004488 0.137956 0.026820
			CHANNELS 3 Zrotation Yrotation Xrotation
			JOINT chest
			{
				OFFSET -0.002265 0.056032 0.002855
				CHANNELS 3 Zrotation Yrotation Xrotation
				JOINT lowerneck
				{
					OFFSET -0.013390 0.211636 -0.033468
					CHANNELS 3 Zrotation Yrotation Xrotation
					JOINT upperneck
					{
						OFFSET 0.010113 0.088937 0.050410
						CHANNELS 3 Zrotation Yrotation Xrotation
						End Site
						{
							OFFSET 0.000000 0.000000 0.000000
						}
					}
				}
				JOINT lclavicle
				{
					OFFSET 0.071702 0.114000 -0.018898
					CHANNELS 3 Zrotation Yrotation Xrotation
					JOINT lshoulder
					{
						OFFSET 0.122921 0.045205 -0.019046
						CHANNELS 3 Zrotation Yrotation Xrotation
						JOINT lelbow
						{
							OFFSET 0.255332 -0.015649 -0.022946
							CHANNELS 3 Zrotation Yrotation Xrotation
							JOINT lwrist
							{
								OFFSET 0.265709 0.012698 -0.007375
								CHANNELS 3 Zrotation Yrotation Xrotation
								End Site
								{
									OFFSET 0.000000 0.000000 0.000000
								}
							}
						}
					}
				}
				JOINT rclavicle
				{
					OFFSET -0.082954 0.112472 -0.023707
					CHANNELS 3 Zrotation Yrotation Xrotation
					JOINT rshoulder
					{
						OFFSET -0.113228 0.046853 -0.008472
						CHANNELS 3 Zrotation Yrotation Xrotation
						JOINT relbow
						{
							OFFSET -0.260127 -0.014369 -0.031269
							CHANNELS 3 Zrotation Yrotation Xrotation
							JOINT rwrist
							{
								OFFSET -0.269108 0.006794 -0.006027
								CHANNELS 3 Zrotation Yrotation Xrotation
								End Site
								{
									OFFSET 0.000000 0.000000 0.000000
								}
							}
						}
					}
				}
			}
		}
	}
}
MOTION
Frames: 14
Frame Time: 0.033333
-0.279009 0.752442 1.189762 88.031716 -0.247095 92.187129 -0.698979 -1.673214 -5.199981 -0.887327 1.919073 10.802539 -7.675756 9.512714 32.435928 0.000000 -0.000000 0.000000 1.220656 -2.611979 -8.687002 -2.466891 -5.300526 15.763980 9.658435 -8.896246 37.771193 0.000000 -0.000000 0.000000 -3.046899 3.874141 10.218208 -0.449160 -3.632501 1.314851 0.793675 0.064750 -1.926543 -2.023636 -1.895247 8.901434 5.506538 1.074802 -0.663687 -12.841397 -16.977408 -0.840496 -26.068079 -17.478882 -0.492273 7.487843 -20.617683 -11.528734 -12.277359 -9.603155 7.853422 9.895543 16.680527 -1.648376 16.678050 25.333149 -7.478247 -31.007825 38.068880 -30.179524 -0.104458 3.013186 -1.607544 
-0.263173 0.753934 1.210782 89.073856 0.202305 91.665403 -0.025788 -1.947856 -8.440491 -0.079670 2.620403 9.483115 -6.852287 9.136459 32.198017 0.000000 -0.000000 0.000000 2.359784 -2.895076 -11.079785 -2.699325 -6.594026 11.882845 9.190515 -8.994705 37.255818 0.000000 -0.000000 0.000000 -2.612209 3.305003 13.833308 -0.782069 -3.885833 -0.398456 0.802015 -0.102974 -0.181821 -1.420012 -1.594076 5.958618 6.273782 0.935219 0.652056 -14.146488 -15.324279 -1.077973 -30.049312 -17.120307 1.388032 6.773843 -20.888121 -9.056155 -12.865457 -9.313184 7.492182 10.863019 14.886441 -1.515997 21.308107 23.153665 -4.239616 -29.847891 39.108293 -27.938649 0.986131 2.468938 -3.836429 
-0.245994 0.755954 1.222143 89.644221 0.398347 91.070083 0.330431 -1.960116 -11.293904 1.242356 5.928126 8.151721 -5.650429 9.933742 31.119449 0.000000 -0.000000 0.000000 3.049819 -3.341806 -13.266188 -3.421406 -7.668398 8.249337 8.929334 -9.445888 36.420201 0.000000 -0.000000 0.000000 -2.329896 3.340383 16.513426 -1.165864 -3.956741 -0.674603 0.876163 -0.644312 0.687788 -1.558907 -1.773431 4.546636 7.092822 1.148069 0.997671 -15.461361 -14.182351 -0.185857 -33.737930 -16.533967 3.131972 5.476256 -20.886372 -6.539031 -12.574280 -9.738934 8.182802 11.550151 13.336645 -1.086831 25.948451 21.319054 -1.311227 -26.966674 39.572707 -24.276345 1.786005 2.766966 -3.044679 
-0.225518 0.758623 1.222843 89.626129 0.280961 90.891674 0.380512 -2.617798 -13.700576 2.082486 7.772756 6.404366 -5.537442 10.014035 30.417635 0.000000 -0.000000 0.000000 2.800159 -3.379853 -14.933499 -3.180240 -8.966377 4.086478 9.851745 -9.178311 36.347521 0.000000 -0.000000 0.000000 -2.309532 3.954313 17.817686 -1.412281 -3.981688 -0.970668 0.925456 -1.083731 1.053552 -1.946032 -2.158381 5.271472 7.879213 0.918464 0.310204 -16.517795 -12.790001 1.310496 -37.975816 -16.146398 5.323666 3.904693 -19.956144 -3.668107 -11.166460 -10.631767 8.989861 11.845500 11.586965 0.285104 30.724366 19.240165 2.015453 -23.326002 40.166887 -18.771669 0.188569 3.099592 -2.703379 
-0.202731 0.759478 1.213050 89.134397 0.365998 90.926726 0.915728 -3.064669 -15.663392 1.981202 7.434692 4.829984 -6.370219 9.478727 29.514815 0.000000 -0.000000 0.000000 2.587812 -2.394709 -16.666440 -2.714850 -8.303542 1.977462 10.883743 -8.793900 35.561940 0.000000 -0.000000 0.000000 -2.757938 4.006962 17.446509 -1.301081 -3.222043 -0.468976 0.840189 -1.048658 1.251263 -1.652105 -2.155196 5.409209 8.360799 0.577992 0.622315 -17.578380 -10.489893 2.132839 -41.537485 -15.069751 7.221446 1.242662 -20.601775 -0.393764 -9.911136 -11.440407 7.817837 12.702442 9.447744 0.881213 34.915859 16.580616 5.941691 -19.821702 41.515838 -13.231186 -0.075220 3.823701 -2.100199 
-0.176229 0.759711 1.191181 88.844866 0.595988 90.534806 1.505804 -3.366794 -16.762887 1.578900 6.309887 4.159647 -7.420759 8.465669 28.729459 0.000000 -0.000000 0.000000 2.732656 -1.742253 -17.862305 -2.696645 -7.146906 2.881296 11.432692 -7.978885 35.040766 0.000000 -0.000000 0.000000 -2.713776 4.172144 17.255064 -1.421623 -2.854219 -0.605724 0.809410 -1.118130 1.057960 -1.575478 -2.428149 5.679779 8.983497 0.968207 0.628144 -18.930016 -8.424937 3.448371 -44.695678 -11.778353 8.140062 -0.705474 -22.909931 1.813733 -9.785236 -11.507110 7.064848 13.108005 7.697965 1.936051 39.682076 12.803616 8.284162 -16.742356 44.365800 -8.938507 1.133980 3.782752 -2.171165 
-0.146600 0.760312 1.157167 88.896215 0.938350 88.885732 1.920079 -3.720827 -16.332071 1.325109 4.771292 5.470810 -6.892496 8.132380 28.382662 0.000000 -0.000000 0.000000 2.839852 -0.839475 -16.956702 -2.464713 -5.677036 5.349830 11.749637 -7.167554 34.910546 0.000000 -0.000000 0.000000 -2.304330 4.245050 17.285765 -1.547498 -2.450081 -0.603875 0.638504 -1.124805 1.579161 -1.369573 -2.936826 5.705866 9.594833 1.318214 0.458999 -20.207426 -5.738656 3.507791 -47.327029 -8.835686 8.355073 -3.137020 -24.097325 3.779215 -9.615539 -10.869097 7.520518 13.826728 5.402599 2.063707 44.642262 8.914852 10.134497 -15.123926 46.592522 -6.542733 0.351278 4.993017 0.510116 
-0.115107 0.761262 1.111931 88.849863 1.240099 86.569405 1.994877 -3.759212 -15.564471 1.039219 3.170922 10.431853 -5.980559 8.140519 26.985318 0.000000 -0.000000 0.000000 3.216368 -0.094013 -15.445426 -2.218823 -3.845185 10.561268 11.152645 -6.177623 33.310438 0.000000 -0.000000 0.000000 -1.892503 4.286017 17.720026 -1.531701 -2.237181 -1.165555 0.456026 -1.441225 2.354483 -1.090371 -3.234789 5.230595 9.753875 1.532419 0.864112 -21.098469 -2.835176 3.387027 -50.482765 -5.820586 7.393510 -3.689703 -23.557253 4.997713 -9.848174 -9.348446 7.545703 14.166660 3.096382 1.851680 49.837381 5.391631 11.084581 -13.895720 48.311718 -4.933698 0.029093 4.475982 -0.965383 
-0.084371 0.761634 1.056368 88.841746 1.541774 84.005979 2.090226 -5.443102 -14.884843 -0.579069 1.103940 19.156174 -4.079408 8.305663 24.996936 0.000000 -0.000000 0.000000 3.845002 1.293432 -14.016954 -0.998673 -2.178918 18.462681 8.757957 -6.120141 30.405149 0.000000 -0.000000 0.000000 -1.890520 4.365400 18.028067 -1.182824 -2.030770 -1.600875 0.300116 -1.723414 3.014083 -0.429907 -3.936794 4.074679 9.601730 1.686729 1.537361 -22.039904 -0.588654 2.959477 -53.061354 -3.798276 5.869248 -2.883460 -20.690644 4.122485 -11.285433 -7.471228 7.873594 14.844340 1.077643 1.511960 53.787060 2.170144 11.734236 -13.064595 49.155401 -3.101767 0.982254 4.581043 -1.336854 
-0.057710 0.762541 0.992331 88.797287 1.853996 81.212807 1.733404 -4.164069 -16.565271 -3.604845 -0.634336 36.797836 3.385143 9.384060 -4.924603 0.000000 -0.000000 0.000000 5.068485 1.844085 -14.766846 1.078777 -0.512608 34.948045 1.593014 -5.867064 -3.284107 0.000000 -0.000000 0.000000 -1.714035 3.500000 19.614481 -0.974984 -1.704138 -3.306977 -0.425663 -1.855835 5.735427 3.987701 -0.174963 -3.273020 6.380164 -1.940615 6.143658 -23.040531 0.015668 0.156391 -54.942183 -1.609483 4.721758 -0.818463 -17.631748 5.738567 -13.014805 -5.778400 6.252365 16.758033 0.573357 -1.199446 55.505591 -0.151595 12.553544 -10.005033 48.481386 4.275414 3.824196 3.786865 -2.869183 
-0.038235 0.764213 0.934879 89.199733 1.966221 80.079580 2.800842 -5.466307 -18.784177 -6.906651 1.096032 46.245646 5.422457 13.844236 -22.826275 0.000000 -0.000000 0.000000 4.919508 4.204210 -16.802677 0.753207 -4.910947 44.436831 -1.708801 -10.101988 -21.922013 0.000000 -0.000000 0.000000 -1.828970 2.537771 21.288349 -0.850333 -1.750913 -2.795440 -0.893594 -1.685485 5.599352 6.091372 2.629444 -8.740320 4.543011 -4.663975 7.358734 -25.112303 -3.076743 0.069327 -55.460450 -1.316099 5.411200 3.516434 -15.044671 6.284150 -13.237872 -4.400999 5.283485 19.138269 2.432521 -1.630666 57.689361 0.101779 13.680348 -10.776666 44.040495 8.742696 5.131234 2.134268 -3.487901 
-0.026823 0.764142 0.896574 89.321767 2.151068 80.642046 2.232607 -1.810401 -22.700719 -6.973146 -0.240202 54.691965 7.862873 14.887449 -31.767055 0.000000 -0.000000 0.000000 6.117697 3.035292 -19.383914 -0.805299 -4.577851 50.304952 -4.542211 -12.888488 -32.210672 0.000000 -0.000000 0.000000 -1.876968 2.069001 23.782408 -1.165034 -1.529972 -5.990037 -0.691806 -1.141534 6.344609 5.811893 2.386961 -11.560135 4.888434 -5.210626 5.685917 -25.197153 -5.035242 -0.442456 -55.814467 -2.346394 5.144638 4.763101 -15.235836 8.929450 -9.259317 -1.884161 7.357130 20.518874 5.674922 -0.988881 60.435557 1.248718 13.129674 -10.677214 36.667864 10.423039 5.038221 -0.106949 0.991631 
-0.019360 0.765947 0.878926 89.341092 0.967611 81.485967 3.207273 -5.292205 -26.917403 -7.698710 5.077658 61.173634 7.505026 14.532518 -31.880995 0.000000 -0.000000 0.000000 4.337332 4.596543 -24.049457 -0.821731 -5.103452 58.094779 -3.343198 -14.141867 -33.160791 0.000000 -0.000000 0.000000 -2.876676 3.311340 24.156873 -0.877633 -1.190810 -5.029065 -0.637756 -0.963551 5.860971 4.947995 1.970039 -13.584346 5.413360 -6.066569 1.838892 -24.636935 -7.119050 -0.088584 -56.299319 -5.334030 6.795563 6.582498 -18.410376 4.921154 -7.004312 -1.436442 3.324573 21.359306 8.458997 -0.156959 62.329253 3.063475 15.004722 -12.150738 30.538752 9.602020 5.576535 -2.608595 5.259132 
-0.013826 0.766761 0.874625 90.395562 1.154231 81.951067 3.854119 -6.221036 -27.653267 -8.446452 5.824309 61.967641 7.426106 14.226473 -32.847953 0.000000 -0.000000 0.000000 4.362833 5.186217 -24.254116 -1.461686 -6.128414 58.516793 -4.130557 -15.098644 -33.984589 0.000000 -0.000000 0.000000 -2.422114 3.390540 25.394264 -0.668402 -1.133169 -4.657934 -0.234260 -0.861430 5.313734 4.055748 1.409856 -15.205794 5.657676 -6.583411 0.211969 -23.655468 -9.328502 -0.494800 -57.207190 -7.604999 7.827431 7.823567 -21.453492 0.404182 -6.276014 -1.574417 -0.822424 20.972110 11.105317 0.599218 62.508222 3.566156 16.523774 -11.540453 30.549805 10.789894 6.993359 -4.425063 6.420628 
